<svg xmlns="http://www.w3.org/2000/svg" width="128" height="64" fill="none"><path fill="#fff" d="M29.903 30.044a4.387 4.387 0 0 0-1.256 3.515l-.021-.021a5.213 5.213 0 0 1-5.633 5.632l.022.022A4.414 4.414 0 1 0 27 43.173l.023.022a5.212 5.212 0 0 1 5.632-5.633l-.022-.021a4.407 4.407 0 0 0 4.534-5.893 4.405 4.405 0 0 0-7.26-1.604h-.004z"/><path fill="#fff" d="m21.05 36.364-.022-.022a4.358 4.358 0 0 0 4.772-4.768l.023.021a5.215 5.215 0 0 1 5.633-5.633l-.023-.021a4.413 4.413 0 1 0-3.982-3.982l-.021-.023a5.212 5.212 0 0 1-5.633 5.633l.021.023a4.357 4.357 0 0 0-4.772 4.769l-.022-.022a5.215 5.215 0 0 1-5.632 5.633l.021.021a4.412 4.412 0 1 0 3.982 3.982l.023.022a5.213 5.213 0 0 1 5.632-5.633z"/><path fill="#fff" d="M13.008 33.955a4.383 4.383 0 0 0 1.254-3.515l.023.022a5.213 5.213 0 0 1 5.635-5.633l-.023-.021a4.412 4.412 0 1 0-3.982-3.982l-.021-.022a5.214 5.214 0 0 1-5.633 5.633l.022.022a4.406 4.406 0 1 0 2.727 7.496h-.002zm43.287 6.333c-1.696 0-3.152-.36-4.368-1.08a7.383 7.383 0 0 1-2.808-3.048c-.656-1.312-.984-2.824-.984-4.536 0-1.712.328-3.224.984-4.536.656-1.312 1.592-2.336 2.808-3.072 1.216-.736 2.672-1.104 4.368-1.104 2.016 0 3.664.504 4.944 1.512 1.296.992 2.104 2.392 2.424 4.2h-3.384c-.208-.912-.656-1.624-1.344-2.136-.672-.528-1.568-.792-2.688-.792-1.552 0-2.768.528-3.648 1.584-.88 1.056-1.32 2.504-1.32 4.344 0 1.84.44 3.288 1.32 4.344.88 1.04 2.096 1.56 3.648 1.56 1.12 0 2.016-.24 2.688-.72.688-.496 1.136-1.176 1.344-2.04h3.384c-.32 1.728-1.128 3.08-2.424 4.056-1.28.976-2.928 1.464-4.944 1.464zm10.671-14.04c-.56 0-1.024-.168-1.392-.504-.352-.336-.528-.76-.528-1.272s.176-.928.528-1.248c.368-.336.832-.504 1.392-.504.56 0 1.016.168 1.368.504.368.32.552.736.552 1.248s-.184.936-.552 1.272c-.352.336-.808.504-1.368.504zM65.43 40V28.096h3.072V40H65.43zm5.278 0V28.096h2.736l.288 2.232a4.918 4.918 0 0 1 1.752-1.824c.752-.464 1.632-.696 2.64-.696v3.24h-.864c-.672 0-1.272.104-1.8.312a2.482 2.482 0 0 0-1.248 1.08c-.288.512-.432 1.224-.432 2.136V40h-3.072zm14.137.288c-1.216 0-2.288-.264-3.216-.792a5.851 5.851 0 0 1-2.208-2.208c-.528-.944-.792-2.024-.792-3.24 0-1.216.264-2.296.792-3.24A5.851 5.851 0 0 1 81.63 28.6c.928-.528 2-.792 3.216-.792 1.52 0 2.8.4 3.84 1.2 1.04.784 1.704 1.872 1.992 3.264h-3.24a2.299 2.299 0 0 0-.96-1.344c-.464-.336-1.016-.504-1.656-.504-.848 0-1.568.32-2.16.96-.592.64-.888 1.528-.888 2.664 0 1.136.296 2.024.888 2.664.592.64 1.312.96 2.16.96.64 0 1.192-.16 1.656-.48.48-.32.8-.776.96-1.368h3.24c-.288 1.344-.952 2.424-1.992 3.24-1.04.816-2.32 1.224-3.84 1.224zm12.023 0c-1.488 0-2.64-.464-3.456-1.392-.8-.928-1.2-2.288-1.2-4.08v-6.72h3.048v6.432c0 1.024.208 1.808.624 2.352.416.544 1.072.816 1.968.816.848 0 1.544-.304 2.088-.912.56-.608.84-1.456.84-2.544v-6.144h3.072V40h-2.712l-.24-2.016a4.163 4.163 0 0 1-1.608 1.68c-.688.416-1.496.624-2.424.624zm10.793-14.04c-.56 0-1.024-.168-1.392-.504-.352-.336-.528-.76-.528-1.272s.176-.928.528-1.248c.368-.336.832-.504 1.392-.504.56 0 1.016.168 1.368.504.368.32.552.736.552 1.248s-.184.936-.552 1.272c-.352.336-.808.504-1.368.504zM106.125 40V28.096h3.072V40h-3.072zm10.583 0c-1.248 0-2.248-.304-3-.912-.752-.608-1.128-1.688-1.128-3.24v-5.184h-2.04v-2.568h2.04l.36-3.192h2.712v3.192h3.216v2.568h-3.216v5.208c0 .576.12.976.36 1.2.256.208.688.312 1.296.312h1.488V40h-2.088z"/></svg>