<?xml version="1.0" encoding="utf-8"?>
<!-- Generator: Adobe Illustrator 28.0.0, SVG Export Plug-In . SVG Version: 6.00 Build 0)  -->
<svg version="1.1"
	 id="svg8" xmlns:svg="http://www.w3.org/2000/svg" xmlns:sodipodi="http://sodipodi.sourceforge.net/DTD/sodipodi-0.dtd" xmlns:inkscape="http://www.inkscape.org/namespaces/inkscape" xmlns:rdf="http://www.w3.org/1999/02/22-rdf-syntax-ns#" xmlns:cc="http://creativecommons.org/ns#" xmlns:dc="http://purl.org/dc/elements/1.1/" sodipodi:docname="crypto.com logo.svg"
	 xmlns="http://www.w3.org/2000/svg" xmlns:xlink="http://www.w3.org/1999/xlink" x="0px" y="0px" viewBox="0 0 512 512"
	 style="enable-background:new 0 0 512 512;" xml:space="preserve">
<style type="text/css">
	.st0{fill:#FFFFFF;}
	.st1{fill:#03316C;}
	.st2{fill:#002E73;}
</style>
<sodipodi:namedview  bordercolor="#666666" borderopacity="1.0" fit-margin-bottom="0" fit-margin-left="0" fit-margin-right="0" fit-margin-top="0" id="base" inkscape:current-layer="layer1" inkscape:cx="232.13793" inkscape:cy="3.8725744" inkscape:document-units="mm" inkscape:pageopacity="0.0" inkscape:pageshadow="2" inkscape:window-height="1017" inkscape:window-maximized="1" inkscape:window-width="1920" inkscape:window-x="1912" inkscape:window-y="70" inkscape:zoom="1.1894531" pagecolor="#ffffff" showgrid="false">
	</sodipodi:namedview>
<g id="layer1" transform="translate(-5.3750828,-113.61004)" inkscape:groupmode="layer" inkscape:label="Layer 1">
	<g id="g903" transform="matrix(0.31794097,0,0,0.31465205,-1.0473248,30.447499)">
		<path id="path817" inkscape:connector-curvature="0" class="st0" d="M154.13,923.3L20.2,1000.6v154.59l133.93,77.3l133.93-77.3
			V1000.6L154.13,923.3z M154.13,923.3L20.2,1000.6v154.59l133.93,77.3l133.93-77.3V1000.6L154.13,923.3z"/>
		<path id="path819" inkscape:connector-curvature="0" class="st1" d="M207,1172.1h-19.06l-22.81-20.93v-10.74l23.62-22.55v-35.7
			l30.87-20.13l35.16,26.57L207,1172.1z M128.09,1115.74l3.49-33.55l-11.54-30.06h68.17l-11.27,30.06l3.22,33.55h-26.3H128.09z
			 M143.66,1151.17l-22.81,21.2h-19.32l-48.04-83.74l35.43-26.3l31.13,19.86v35.7l23.62,22.55L143.66,1151.17z M101.25,990.13
			h105.48l12.61,53.68H88.91L101.25,990.13z M154.13,923.3L20.2,1000.6v154.59l133.93,77.3l133.93-77.3V1000.6L154.13,923.3z"/>
		<path id="path845" inkscape:connector-curvature="0" class="st2" d="M438.36,1149.56c-35.43,0-61.46-27.64-61.46-61.73
			s26.3-62.54,61.73-62.54c22.55,0,36.5,8.32,47.51,20.4l-16.91,18.25c-8.32-8.86-17.18-14.76-30.87-14.76
			c-19.86,0-34.35,17.18-34.35,38.11c0,21.47,14.76,38.65,35.7,38.65c12.88,0,22.28-6.17,30.87-14.76l16.37,16.37
			C475.13,1140.16,461.44,1149.56,438.36,1149.56"/>
		<path id="path847" inkscape:connector-curvature="0" class="st2" d="M538.74,1149.56h-27.38v-124h27.38v28.99
			c7.52-17.71,21.2-30.06,42.14-28.99v28.99h-1.61c-23.89,0-40.53,15.57-40.53,47.24L538.74,1149.56z"/>
		<polygon id="polygon849" class="st2" points="723.93,1025.02 663.54,1182.84 635.9,1182.84 649.05,1149.56 597.25,1025.02 
			626.5,1025.02 661.66,1117.08 695.48,1025.02 		"/>
		<path id="path851" inkscape:connector-curvature="0" class="st2" d="M804.45,1048.91c-18.52,0-34.62,15.03-34.62,38.38
			c0,23.35,16.37,38.38,34.62,38.38c18.79,0,34.09-14.76,34.09-38.38C838.53,1063.67,822.97,1048.91,804.45,1048.91 M810.62,1149.29
			c-19.59,0-31.94-9.93-40.26-20.93v54.48h-27.38v-157.82h27.38v22.28c8.86-12.35,21.2-22.28,40.26-22.28
			c28.18,0,55.56,22.28,55.56,62S839.07,1149.29,810.62,1149.29"/>
		<path id="path853" inkscape:connector-curvature="0" class="st2" d="M926.03,1051.06v58.51c0,10.47,5.37,14.76,14.76,14.76h10.74
			v24.42h-18.79c-19.86,0-34.09-8.86-34.09-34.89v-62.8h-15.03v-23.35h15.03v-32.74h27.38v32.74h25.5v23.35L926.03,1051.06z"/>
		<path id="path855" inkscape:connector-curvature="0" class="st2" d="M1037.68,1048.91c-22.01,0-35.96,17.18-35.96,38.11
			c0,21.2,15.03,38.65,36.23,38.65c22.01,0,35.96-17.18,35.96-38.11C1074.45,1066.36,1059.15,1048.91,1037.68,1048.91
			 M1037.68,1149.56c-36.23,0-63.07-27.64-63.07-61.73c0-34.35,27.11-62.54,63.61-62.54c36.5,0,63.34,27.64,63.34,62
			C1101.56,1121.11,1074.72,1149.56,1037.68,1149.56"/>
		<path id="path857" inkscape:connector-curvature="0" class="st2" d="M1362.71,1048.91c-22.01,0-35.96,17.18-35.96,38.11
			c0,21.2,15.03,38.65,36.23,38.65c22.01,0,35.96-17.18,35.96-38.11C1399.21,1066.36,1384.18,1048.91,1362.71,1048.91
			 M1362.71,1149.56c-36.23,0-63.07-27.64-63.07-61.73c0-34.35,27.11-62.54,63.61-62.54c36.5,0,63.34,27.64,63.34,62
			C1426.58,1121.11,1399.47,1149.56,1362.71,1149.56"/>
		<path id="path859" inkscape:connector-curvature="0" class="st2" d="M1588.69,1025.02c26.03,0,41.87,16.37,41.87,45.63v78.64
			h-27.38v-70.32c0-19.06-8.86-28.99-24.16-28.99c-14.76,0-25.5,10.47-25.5,29.52v70.05h-27.38v-70.59
			c0-18.52-9.13-28.99-24.16-28.99s-25.5,11.27-25.5,29.79v69.78h-27.38v-124.27h27.38v20.4c7.78-10.47,17.98-20.4,36.23-20.4
			c17.18,0,28.99,8.32,35.43,20.93C1558.1,1033.34,1570.71,1025.02,1588.69,1025.02"/>
		<polygon id="polygon861" class="st2" points="1125.44,1122.99 1137.25,1116.28 1138.86,1116.28 1150.94,1122.99 1151.75,1124.33 
			1151.75,1138.29 1150.94,1139.63 1138.86,1146.34 1137.25,1146.34 1125.44,1139.63 1124.64,1138.29 1124.64,1124.33 		"/>
		<path id="path863" inkscape:connector-curvature="0" class="st2" d="M1234.68,1149.29c-35.43-0.81-60.93-28.99-60.39-63.07
			c0.54-34.09,27.38-62,63.07-61.19c22.55,0.54,36.5,9.13,47.24,21.47l-17.18,17.98c-8.05-8.86-16.91-15.3-30.6-15.57
			c-19.86-0.27-34.62,16.37-34.89,37.58c-0.54,21.47,13.96,38.92,34.89,39.19c12.88,0.27,22.55-5.64,31.13-14.22l16.1,16.64
			C1271.99,1140.7,1258.03,1149.83,1234.68,1149.29"/>
	</g>
</g>
</svg>
