<svg xmlns="http://www.w3.org/2000/svg" width="128" height="64" fill="none"><g fill="#fff" clip-path="url(#a)"><path fill-rule="evenodd" d="M25.445 25.348A8 8 0 0 0 21 24v-8A16 16 0 1 1 5 32h8a8 8 0 1 0 12.445-6.652z" clip-rule="evenodd"/><path fill-rule="evenodd" d="M13 16a7.999 7.999 0 0 1-8 8v8a16 16 0 0 0 16-16h-8z" clip-rule="evenodd"/><path d="M52.076 35.528c0 1.792-.528 3.184-1.584 4.176-1.04.992-2.464 1.488-4.272 1.488-2.352 0-4.304-.904-5.856-2.712l2.016-3c.592.608 1.2 1.08 1.824 1.416.624.32 1.192.48 1.704.48.544 0 .968-.168 1.272-.504.32-.336.48-.816.48-1.44V27.8H41.9v-3.624h10.176v11.352zm14.65-7.512V41h-4.272v-2.112c-.88 1.504-2.264 2.272-4.152 2.304-1.408 0-2.536-.448-3.384-1.344-.832-.912-1.248-2.12-1.248-3.624v-8.208h4.272V35c0 .736.184 1.312.552 1.728.384.416.896.624 1.536.624.752-.016 1.344-.288 1.776-.816.432-.544.648-1.248.648-2.112v-6.408h4.272zm10.473-.144c1.2 0 2.256.28 3.168.84.912.544 1.616 1.328 2.112 2.352.512 1.008.768 2.176.768 3.504 0 1.312-.248 2.464-.744 3.456-.48.992-1.176 1.76-2.088 2.304-.896.544-1.936.816-3.12.816-.816 0-1.56-.152-2.232-.456a4.773 4.773 0 0 1-1.68-1.368v6.336h-4.272v-17.64h4.272v1.68c.944-1.216 2.216-1.824 3.816-1.824zm-1.056 9.816c.832 0 1.504-.296 2.016-.888.528-.592.792-1.368.792-2.328 0-.96-.264-1.736-.792-2.328-.512-.608-1.184-.912-2.016-.912-.816 0-1.48.304-1.992.912-.512.592-.768 1.368-.768 2.328 0 .96.256 1.736.768 2.328.512.592 1.176.888 1.992.888zm8.302-9.672h4.248V41h-4.248V28.016zm2.088-5.976c.656 0 1.192.216 1.608.648.431.416.647.96.647 1.632 0 .656-.215 1.2-.647 1.632-.416.432-.953.648-1.609.648s-1.2-.216-1.632-.648c-.416-.432-.624-.976-.624-1.632 0-.672.209-1.216.624-1.632.432-.432.976-.648 1.632-.648zm12.883 18.288a6.743 6.743 0 0 1-1.656.648 8.405 8.405 0 0 1-1.896.216c-1.28 0-2.32-.368-3.12-1.104-.784-.736-1.176-1.752-1.176-3.048v-5.568h-1.8V28.64h1.8v-3.6h4.248v3.6h3.36v2.832h-3.36v4.896c0 .912.376 1.368 1.128 1.368.464 0 1.016-.144 1.656-.432l.816 3.024zm6.67-12.456c2.112 0 3.736.624 4.872 1.872 1.136 1.248 1.704 2.96 1.704 5.136 0 .336-.008.592-.024.768h-9.024c.208.736.568 1.304 1.08 1.704.512.384 1.136.576 1.872.576a3.97 3.97 0 0 0 1.608-.336 4.53 4.53 0 0 0 1.44-.984l2.232 2.232a6.682 6.682 0 0 1-2.448 1.728c-.944.384-2.016.576-3.216.576-1.392 0-2.608-.272-3.648-.816a5.75 5.75 0 0 1-2.4-2.304c-.544-.992-.816-2.144-.816-3.456 0-1.328.28-2.496.84-3.504a5.706 5.706 0 0 1 2.376-2.352c1.024-.56 2.208-.84 3.552-.84zm2.424 5.496c0-.752-.224-1.352-.672-1.8-.432-.464-1.008-.696-1.728-.696-.672 0-1.24.224-1.704.672-.448.448-.744 1.056-.888 1.824h4.992zm9.597-3.192c.448-.752 1.024-1.328 1.728-1.728.72-.4 1.536-.6 2.448-.6v3.912a6.398 6.398 0 0 0-.648-.024c-1.008 0-1.824.24-2.448.72-.624.464-.984 1.104-1.08 1.92V41h-4.272V28.016h4.272v2.16z"/></g><defs><clipPath id="a"><path fill="#fff" d="M5 16h118v32H5z"/></clipPath></defs></svg>