<svg xmlns="http://www.w3.org/2000/svg" width="128" height="64" fill="none"><path fill="#fff" d="M57.123 39.2V23.52h3.405l4.995 9.946 4.928-9.946h3.405V39.2h-2.867V28.38l-4.368 8.58h-2.263l-4.368-8.58V39.2h-2.867zm21.938.269c-.955 0-1.74-.15-2.352-.448-.612-.314-1.067-.724-1.366-1.232a3.252 3.252 0 0 1-.448-1.68c0-1.03.403-1.867 1.21-2.509.806-.642 2.016-.963 3.628-.963h2.823v-.269c0-.762-.217-1.322-.65-1.68-.433-.358-.97-.538-1.613-.538-.582 0-1.09.142-1.523.426-.433.269-.702.672-.806 1.21h-2.8c.075-.807.343-1.509.806-2.106a4.574 4.574 0 0 1 1.837-1.366c.747-.329 1.583-.493 2.509-.493 1.583 0 2.83.396 3.74 1.187.912.791 1.367 1.912 1.367 3.36V39.2h-2.442l-.268-1.792a4.107 4.107 0 0 1-1.39 1.478c-.582.389-1.336.583-2.262.583zm.65-2.24c.821 0 1.456-.269 1.904-.807.463-.537.754-1.202.874-1.993h-2.442c-.762 0-1.307.142-1.635.425-.329.27-.493.605-.493 1.008 0 .433.164.77.493 1.008.328.24.761.359 1.299.359zm11.552-1.344c-.538 0-1.038-.06-1.5-.18l-.83.83c.254.134.598.246 1.03.335.434.09 1.136.18 2.107.27 1.478.134 2.553.485 3.225 1.052.672.568 1.008 1.352 1.008 2.352 0 .657-.18 1.277-.537 1.86-.359.597-.911 1.074-1.658 1.433-.747.373-1.703.56-2.867.56-1.583 0-2.86-.299-3.83-.896-.971-.583-1.457-1.464-1.457-2.643 0-1 .486-1.867 1.456-2.599a5.435 5.435 0 0 1-.784-.425 4.436 4.436 0 0 1-.56-.47v-.516l1.95-2.06c-.867-.762-1.3-1.74-1.3-2.935 0-.747.18-1.426.538-2.039a3.994 3.994 0 0 1 1.567-1.456c.672-.358 1.486-.537 2.442-.537.627 0 1.21.09 1.747.269h4.212v1.747l-1.904.134c.298.568.448 1.195.448 1.882a3.96 3.96 0 0 1-.538 2.038c-.358.613-.881 1.098-1.568 1.456-.672.359-1.471.538-2.397.538zm0-2.195c.582 0 1.06-.157 1.434-.47.388-.314.582-.762.582-1.345 0-.582-.194-1.03-.582-1.344-.374-.313-.852-.47-1.434-.47-.612 0-1.105.157-1.478.47-.374.314-.56.762-.56 1.344 0 .583.186 1.03.56 1.344.373.314.866.47 1.478.47zm-2.688 6.876c0 .553.254.964.762 1.232.522.284 1.157.426 1.904.426.716 0 1.299-.15 1.747-.448.448-.284.672-.672.672-1.165a1.3 1.3 0 0 0-.448-1.008c-.284-.269-.859-.433-1.725-.493a17.793 17.793 0 0 1-1.702-.201c-.433.239-.747.5-.941.784a1.61 1.61 0 0 0-.269.873z"/><path fill="#fff" d="M102.673 39.469c-1.12 0-2.113-.24-2.979-.717a5.187 5.187 0 0 1-2.038-2.016c-.493-.866-.74-1.867-.74-3.002 0-1.15.24-2.172.717-3.068a5.308 5.308 0 0 1 2.016-2.084c.866-.507 1.882-.761 3.047-.761 1.09 0 2.053.239 2.889.717a5.05 5.05 0 0 1 1.949 1.97c.478.822.717 1.74.717 2.756 0 .164-.008.336-.023.515 0 .18-.007.366-.022.56h-8.445c.06.866.359 1.546.896 2.039.553.492 1.217.739 1.994.739.582 0 1.067-.127 1.456-.381a2.48 2.48 0 0 0 .896-1.03h2.912a5.298 5.298 0 0 1-1.053 1.926 5.06 5.06 0 0 1-1.792 1.344c-.702.329-1.501.493-2.397.493zm.023-9.319a3.02 3.02 0 0 0-1.86.605c-.537.389-.88.986-1.03 1.792h5.533c-.045-.731-.314-1.314-.807-1.747-.492-.433-1.105-.65-1.836-.65zM34 16c-8.837 0-16 7.163-16 16 8.837 0 16-7.163 16-16zm0 32c8.837 0 16-7.163 16-16-8.837 0-16 7.163-16 16zm0-32c8.837 0 16 7.163 16 16-8.837 0-16-7.163-16-16zm0 32c-8.837 0-16-7.163-16-16 8.837 0 16 7.163 16 16z"/></svg>