<svg xmlns="http://www.w3.org/2000/svg" width="128" height="64" fill="none"><g fill="#fff" clip-path="url(#a)"><path d="M4.315 30.598a17.21 17.21 0 0 1 33.403 0h-1.509a12.182 12.182 0 0 0-7.128 2.175c-.12.087-.247.167-.377.239h-.176a3.593 3.593 0 0 1-.377-.24 12.785 12.785 0 0 0-14.269 0c-.12.088-.246.168-.377.24h-.176a3.592 3.592 0 0 1-.377-.24 12.182 12.182 0 0 0-7.128-2.174H4.315zm29.179 7.882a4.237 4.237 0 0 1 2.715-.892h2.024v-4.036H36.21a8.021 8.021 0 0 0-4.815 1.534 4.576 4.576 0 0 1-5.43 0 8.55 8.55 0 0 0-9.769 0 4.576 4.576 0 0 1-5.43 0 8.02 8.02 0 0 0-4.878-1.534H3.8v4.036h2.024a4.237 4.237 0 0 1 2.715.892 8.523 8.523 0 0 0 9.756 0 4.263 4.263 0 0 1 2.715-.892 4.212 4.212 0 0 1 2.716.892 8.548 8.548 0 0 0 9.768 0zm0 7.216a4.237 4.237 0 0 1 2.715-.892h2.024v-4.036H36.21a8.021 8.021 0 0 0-4.815 1.534 4.576 4.576 0 0 1-5.43 0 8.55 8.55 0 0 0-9.769 0 4.576 4.576 0 0 1-5.43 0 8.021 8.021 0 0 0-4.878-1.534H3.8v4.036h2.024a4.237 4.237 0 0 1 2.715.892 8.523 8.523 0 0 0 9.756 0 4.263 4.263 0 0 1 2.715-.892 4.212 4.212 0 0 1 2.716.892 8.548 8.548 0 0 0 9.768 0zM54.92 41.24c-1.36 0-2.687-.248-3.983-.744a11.05 11.05 0 0 1-3.456-2.16l1.992-2.496c.976.864 1.912 1.488 2.808 1.872a7.347 7.347 0 0 0 2.88.576c.704 0 1.312-.08 1.824-.24.512-.176.904-.424 1.176-.744.288-.32.432-.696.432-1.128 0-.576-.208-1.016-.624-1.32-.416-.32-1.128-.568-2.136-.744l-3.336-.576c-1.424-.24-2.512-.744-3.264-1.512-.736-.768-1.104-1.76-1.104-2.976 0-1.04.264-1.944.792-2.712.544-.768 1.304-1.352 2.28-1.752.992-.416 2.168-.624 3.528-.624 1.232 0 2.456.208 3.672.624 1.232.416 2.32.992 3.264 1.728l-1.872 2.592c-1.76-1.344-3.528-2.016-5.304-2.016-.624 0-1.168.08-1.632.24-.464.16-.824.384-1.08.672-.24.272-.36.6-.36.984 0 .512.184.912.552 1.2.368.272.984.48 1.848.624l3.168.528c1.68.272 2.936.808 3.768 1.608.832.784 1.248 1.824 1.248 3.12 0 1.088-.288 2.04-.864 2.856-.576.8-1.4 1.424-2.472 1.872-1.056.432-2.304.648-3.744.648zm13.533 0c-.96 0-1.816-.208-2.568-.624a4.785 4.785 0 0 1-1.752-1.776c-.416-.752-.624-1.616-.624-2.592v-7.752h3.288v7.272c0 .8.232 1.44.696 1.92.48.48 1.12.72 1.92.72.544 0 1.032-.104 1.464-.312a2.982 2.982 0 0 0 1.104-.936v-8.664h3.288V41h-3.288v-1.008c-.96.832-2.136 1.248-3.528 1.248zm9.139-.24V28.496h3.288v1.032c.944-.848 2.112-1.272 3.504-1.272.976 0 1.832.216 2.568.648.752.416 1.336 1 1.752 1.752.416.736.624 1.6.624 2.592V41H86.04v-7.272c0-.816-.232-1.456-.696-1.92-.464-.48-1.096-.72-1.896-.72-.56 0-1.056.112-1.488.336a2.825 2.825 0 0 0-1.08.912V41h-3.288zm18.666.24c-1.152 0-2.216-.144-3.192-.432-.976-.304-1.824-.736-2.544-1.296l1.632-2.184c.72.48 1.408.84 2.064 1.08.672.24 1.336.36 1.992.36.736 0 1.32-.12 1.752-.36.448-.256.672-.584.672-.984a.912.912 0 0 0-.384-.768c-.24-.192-.632-.328-1.176-.408l-2.4-.36c-1.248-.192-2.192-.592-2.832-1.2-.64-.624-.96-1.44-.96-2.448 0-.816.208-1.512.624-2.088.432-.592 1.032-1.048 1.8-1.368.784-.336 1.712-.504 2.784-.504.912 0 1.8.128 2.664.384.88.256 1.704.648 2.472 1.176l-1.584 2.136c-.688-.432-1.344-.744-1.968-.936a6.413 6.413 0 0 0-1.896-.288c-.592 0-1.072.112-1.44.336-.352.224-.528.52-.528.888 0 .336.128.6.384.792.256.192.696.328 1.32.408l2.376.36c1.248.176 2.2.576 2.856 1.2.656.608.984 1.4.984 2.376 0 .8-.24 1.512-.72 2.136-.48.608-1.128 1.096-1.944 1.464-.816.352-1.752.528-2.808.528zm13.107 0c-1.248 0-2.384-.288-3.408-.864a6.57 6.57 0 0 1-2.4-2.328c-.592-.976-.888-2.072-.888-3.288 0-1.216.28-2.312.84-3.288a6.493 6.493 0 0 1 2.328-2.328c.976-.576 2.064-.864 3.264-.864 1.2 0 2.264.296 3.192.888a6.203 6.203 0 0 1 2.184 2.4c.544 1.008.816 2.152.816 3.432v.864h-9.264c.144.496.376.944.696 1.344.336.4.744.712 1.224.936a3.804 3.804 0 0 0 1.584.336 4.3 4.3 0 0 0 1.536-.264c.48-.176.888-.424 1.224-.744l2.16 1.968c-.768.624-1.56 1.08-2.376 1.368-.8.288-1.704.432-2.712.432zm-3.384-7.728h6.072a3.06 3.06 0 0 0-.624-1.296 2.964 2.964 0 0 0-1.056-.888 2.703 2.703 0 0 0-1.344-.336c-.512 0-.976.104-1.392.312a2.964 2.964 0 0 0-1.056.888 3.706 3.706 0 0 0-.6 1.32zm16.663 7.68c-1.392 0-2.448-.312-3.168-.936-.704-.64-1.056-1.568-1.056-2.784v-6.24h-2.568v-2.736h2.568v-3.192l3.288-.744v3.936h3.576v2.736h-3.576V36.8c0 .576.128.992.384 1.248.256.24.704.36 1.344.36.32 0 .608-.016.864-.048a5.72 5.72 0 0 0 .888-.24v2.712c-.336.112-.76.2-1.272.264-.496.064-.92.096-1.272.096z"/></g><defs><clipPath id="a"><path fill="#fff" d="M0 0h128v64H0z"/></clipPath></defs></svg>